<?xml version="1.0" encoding="UTF-8"?>
<svg id="_레이어_1" data-name="레이어_1" xmlns="http://www.w3.org/2000/svg" version="1.1" xmlns:xlink="http://www.w3.org/1999/xlink" viewBox="0 0 40 40">
  <!-- Generator: Adobe Illustrator 29.3.1, SVG Export Plug-In . SVG Version: 2.1.0 Build 151)  -->
  <defs>
    <style>
      .st0 {
        fill: #141414;
      }
    </style>
  </defs>
  <polygon class="st0" points="14.2 5.8 13 5.8 13 1.2 11.3 1.2 11.3 .2 15.9 .2 15.9 1.2 14.2 1.2 14.2 5.8"/>
  <polygon class="st0" points="17.5 3.3 17.5 5.8 16.3 5.8 16.3 .2 17.5 .2 17.5 2.3 19.7 2.3 19.7 .2 20.8 .2 20.8 5.8 19.7 5.8 19.7 3.3 17.5 3.3"/>
  <polygon class="st0" points="25.4 1.2 22.4 1.2 22.4 2.4 25 2.4 25 3.4 22.4 3.4 22.4 4.8 25.4 4.8 25.4 5.8 21.3 5.8 21.3 .2 25.4 .2 25.4 1.2"/>
  <polygon class="st0" points="3.5 6.4 4.6 6.4 4.6 12 3.4 12 1.1 8 1.1 8 1.1 12 0 12 0 6.4 1.2 6.4 3.5 10.3 3.5 10.3 3.5 6.4"/>
  <path class="st0" d="M7.8,11.1c.6,0,1.5-.4,1.5-2s-.9-2-1.5-2-1.5.4-1.5,2,.9,2,1.5,2M7.8,6.2c.7,0,2.7.3,2.7,2.9s-1.9,2.9-2.7,2.9-2.7-.3-2.7-2.9c0-2.5,2-2.9,2.7-2.9"/>
  <polygon class="st0" points="18.7 12 17.6 12 17.6 7.4 15.9 7.4 15.9 6.4 20.4 6.4 20.4 7.4 18.7 7.4 18.7 12"/>
  <polygon class="st0" points="22 9.5 22 12 20.9 12 20.9 6.4 22 6.4 22 8.5 24.2 8.5 24.2 6.4 25.4 6.4 25.4 12 24.2 12 24.2 9.5 22 9.5"/>
  <path class="st0" d="M13.5,8.9c.6,0,.9-.2.9-.8s-.1-.7-.8-.7h-1.5v1.5h1.4ZM11,6.4h2.8c1.5,0,1.8,1.1,1.8,1.6s-.3,1.1-.9,1.3c.5.2.7.4.7,1.4s0,1,.3,1.1v.2h-1.3c-.1-.3-.1-.6-.1-1.1,0-.8,0-1.1-.9-1.1h-1.2v2.2h-1.2v-5.6Z"/>
  <polygon class="st0" points="8.7 18.2 7.5 18.2 7.5 12.6 11.5 12.6 11.5 13.6 8.7 13.6 8.7 14.8 11.1 14.8 11.1 15.8 8.7 15.8 8.7 18.2"/>
  <path class="st0" d="M12.7,16h1.4l-.7-2.2h0l-.7,2.2ZM12,18.2h-1.2l2-5.6h1.4l2,5.6h-1.3l-.4-1.2h-2.1l-.4,1.2Z"/>
  <path class="st0" d="M19.7,14.4c-.1-.3-.3-1-1.2-1s-1.4.4-1.4,2,.4,1.9,1.4,1.9,1.1-.4,1.2-1.1h1.2c-.2,1.2-1,2.1-2.4,2.1s-2.6-1-2.6-2.9,1.1-3,2.6-3,2.4,1.2,2.4,2h-1.2Z"/>
  <polygon class="st0" points="25.4 13.6 22.4 13.6 22.4 14.7 25 14.7 25 15.7 22.4 15.7 22.4 17.2 25.4 17.2 25.4 18.2 21.3 18.2 21.3 12.6 25.4 12.6 25.4 13.6"/>
  <path class="st0" d="M39.5,13.2C39.5,6,33.7.2,26.5.2h-.3v5.6h.3c4.2,0,7.6,3.4,7.6,7.5h0v4.8h5.4v-4.9Z"/>
  <path class="st0" d="M26.5,12.6h-.3v5.6h2.7v-3.2c0-1.3-1.1-2.4-2.4-2.4"/>
  <path class="st0" d="M33.5,13.4c0-3.9-3.2-7-7-7h-.3v5.6h.3c1.7,0,3,1.3,3,3v3.2h4v-4.8Z"/>
  <g>
    <path class="st0" d="M25.7,27.6v.4c0,.7-.1,1.4-.1,2.1,0,1.2,0,2.3.1,3.2.3-.3.6-.9.8-1.1.3-.2.6-.7.8-.8.1-.1.2-.1.3-.1.2,0,.4.1.5.2.2.1.3.3.4.5.1,0,.7.4.7.5.2,0,.2.5.8.7.2,0,.5.2.8.3v-1.5h0v-5.9c0-.6.1-1.2.2-1.6h0c.2-1.1.7-1.4,1.4-1.4s1.2.3,1.4,1.5h0c0,.5.2,1.3.2,2.2v8.1c.3,0,.5,0,.6,0,.4-.5,1.3-.9,1.4-.9s.3,0,.4,0c.2,0,.4,0,.6.2h0c0,.2.2.3.3.5,0,0,.3.2.4.3,0,0,.6.3.8.4.2.2.2.3.4.3.3-1.4.5-3.1.5-5.3h0v-.6c0-5.3-1.1-8-3.2-9.2h-7.4c-1.9,1.1-2.9,3.2-3.2,7.2"/>
    <path class="st0" d="M21.1,20.5h-7.4c-2.2,1.2-3.2,4-3.2,9.6h0v.5c0,3.4.5,5.7,1.3,7.2h.3s.2,0,.3,0c.1,0,.2-.2.2-.2h.5c0,0,.3-.3.4-.3,0,0,.1,0,.2,0q.1,0,.2-.2c.1,0,.2-.2.3-.3s.2-.2.4-.3c.1,0,.7-.8,1.1-.9.1,0,.2-.2.3-.2-.1-.5-.1-1-.1-1.7v-6.7c0-2.9.5-3.7,1.6-3.7s1.6.8,1.6,3.7v1.6h0v5.9c0,.6-.1,1.2-.2,1.6h0c-.1.5-.3.9-.5,1.1h.1c.1,0,.2,0,.3,0,0,0,.1,0,.1,0,.1,0,.1,0,.2,0s.1,0,.2-.2c.1-.2.2-.2.3-.3.1,0,.2,0,.3-.2.1,0,.2-.2.3-.3q.1,0,.2,0c.2,0,.3-.2.5,0h.5c.4,0,1.1.4,1.5.2.2,0,.5.2.7,0h.1c.2-1,.3-1.9.4-3.1v-.5c0-.7.1-1.4.1-2.1,0-5.6-.9-8.4-3.1-9.6"/>
    <path class="st0" d="M5.9,39.1c.4,0,1-.2,1.2-.3.2,0,.5-.3.5-.3h.6c0,0,.3-.2.3-.2v-17.8h-2.4c-3.4,0-6.1,2.7-6.1,6.1h0c0,.1,3.2.1,3.2.1v13h.8c.3,0,.5-.2.9-.4.4,0,.8,0,1-.2"/>
    <path class="st0" d="M8.5,39h-.4c-.4,0-.6.2-1,.3-.8,0-1.7.3-2,.4h3.4v-.7Z"/>
    <path class="st0" d="M38,38.2l-.8-.8c-.2,0-2-.9-2.2-.7-.9.8-1,1.6-1.6,1.7-.8.2-1.4-1.1-1.6-1.1s-.2-.2-.2-.4c-.3-.3-.4-.7-.5-1.5-.2-.2-.5-.4-.6-.5s-.3-.2-.3-.3-.8-.6-.9-.7c-.1,0-.4-.4-.5-.5,0,0-.2-.4-.3-.4-.4-.5-.5,0-.5,0v.2c0,0-.1.4-.1.5s.1.6.1.6c.1,0,.2.5.1.6,0,0,0,.2-.1.3h0c-.1,0-.2,0-.3.2-.2.2-.5.4-.7.7-.1.2-.3.2-.3.4s-.1.3-.2.5c.5,1.3,1.2,2.1,2.2,2.7h7.7c.6-.4,1.1-.9,1.6-1.6"/>
    <path class="st0" d="M23.3,37.2c-.3-.3-.8-.6-.9-.5-.3.2-.4.2-.6.5-.2.4-.3.3-.7.6-.2.2-.5,0-1.1,0s-1.8,1-2.5.6h-.1c-.2-.3-.3-.4-.5-.6-.1-.2-.3-.4-.4-.5s-.2,0-.2,0c-.1,0-.2-.3-.3-.3h-.1c-.1,0-.3-.2-.3-.2-.1,0-.2.2-.3.5,0,0-.5,0-.6.2-.2,0-.4.2-.5.3s-.2.2-.3.3c0,0-.2,0-.3,0s-.2,0-.4,0c0,0-.2,0-.3,0-.1,0-.2,0-.3.2h-.4c.2.3.5.7.5.7.3.3.6.5.9.7h7.7c.8-.6,1.5-1.5,2-2.7"/>
  </g>
</svg>